
<svg xmlns="http://www.w3.org/2000/svg" version="1" viewBox="0 0 90 113">
  <path d="M47 78h-8v6h9v-6h-1zM41 74S20 50 20 31C20 16 30 7 43 7c-17 0-30 9-30 24 0 19 27 43 27 43h1z"/>
  <path d="M44 7c-1 0-1 0 0 0-1 0-1 0 0 0-1 0-1 0 0 0h-1 1c-4 0-8 9-8 24 0 19 7 43 7 43h1s7-24 7-43c0-16-3-24-7-24 6 0 10 8 10 24 0 19-9 43-9 43h1s17-24 17-43c0-16-9-24-19-24 12 0 23 8 23 24 0 19-21 43-21 43h1s27-24 27-43C74 15 60 7 44 7z"/>
  <path d="M24 31c0 19 17 43 17 43h1s-9-24-9-43c0-15 5-24 10-24-10 0-19 9-19 24zM41 76h6v1h-6z"/>
</svg>